<?xml version="1.0" standalone="no"?>
<!DOCTYPE svg PUBLIC "-//W3C//DTD SVG 20010904//EN"
 "http://www.w3.org/TR/2001/REC-SVG-20010904/DTD/svg10.dtd">
<svg version="1.0" xmlns="http://www.w3.org/2000/svg"
 width="1182.000000pt" height="1182.000000pt" viewBox="0 0 1182.000000 1182.000000"
 preserveAspectRatio="xMidYMid meet">

<g transform="translate(0.000000,1182.000000) scale(0.100000,-0.100000)"
fill="#000000" stroke="none">
<path d="M1920 11782 c0 -66 129 -3381 155 -3982 23 -533 45 -1323 45 -1587
l0 -113 544 0 c584 0 740 7 1441 61 220 17 424 32 454 33 l55 1 32 -185 c30
-178 33 -212 60 -877 15 -381 26 -695 23 -698 -17 -16 -547 -53 -1658 -115
-683 -38 -1244 -70 -1245 -72 -1 -2 0 -921 2 -2044 l4 -2040 262 -42 c250 -41
275 -43 596 -52 184 -5 437 -17 563 -26 125 -9 230 -15 232 -12 3 3 10 337 15
744 10 737 43 1753 58 1764 4 3 743 2 1642 -2 1459 -8 1690 -11 2142 -31 279
-13 509 -25 512 -28 3 -3 -8 -558 -24 -1234 -16 -676 -28 -1230 -26 -1232 4
-4 1819 37 1824 41 1 2 3 837 5 1857 1 1418 -1 1932 -11 2184 -8 182 -15 331
-15 331 -1 1 -312 7 -692 13 -595 10 -1403 35 -1410 43 -6 7 -25 995 -25 1300
l0 346 83 6 c45 3 577 22 1182 42 605 19 1110 37 1121 40 l21 4 7 722 c6 602
74 4065 90 4548 l4 145 -906 -32 c-499 -17 -950 -32 -1002 -32 l-95 -1 3 -307
c2 -170 -2 -470 -8 -668 -6 -198 -15 -817 -20 -1375 -5 -558 -12 -1070 -15
-1137 l-7 -121 -362 4 c-198 2 -401 6 -451 8 -49 3 -553 -15 -1120 -39 -979
-42 -1052 -47 -1474 -90 -244 -25 -446 -44 -448 -41 -11 10 -117 3257 -125
3803 l-3 213 -1017 0 -1018 0 0 -38z"/>
<path d="M5391 10679 c-117 -4 -214 -9 -216 -11 -3 -3 -40 -510 -55 -763 -20
-338 -30 -615 -30 -847 0 -220 1 -238 18 -238 9 1 430 -27 934 -62 504 -34
919 -60 921 -58 3 3 8 449 12 991 l7 986 -113 6 c-151 9 -1207 6 -1478 -4z"/>
</g>
</svg>
